<mxfile host="app.diagrams.net" modified="2024-02-20T09:34:36.825Z" agent="Mozilla/5.0 (Windows NT 10.0; Win64; x64) AppleWebKit/537.36 (KHTML, like Gecko) Chrome/121.0.0.0 Safari/537.36 Edg/121.0.0.0" etag="xMyYkoEXAo3lx_9y6hER" version="23.1.4" type="device">
  <diagram name="Страница — 1" id="oIWAv3WAFl9JUtC6WDui">
    <mxGraphModel dx="1932" dy="600" grid="1" gridSize="10" guides="1" tooltips="1" connect="1" arrows="1" fold="1" page="1" pageScale="1" pageWidth="827" pageHeight="1169" math="0" shadow="0">
      <root>
        <mxCell id="0" />
        <mxCell id="1" parent="0" />
        <mxCell id="G8OPM8uIWyd5GZgRc9hr-9" style="edgeStyle=orthogonalEdgeStyle;rounded=0;orthogonalLoop=1;jettySize=auto;html=1;exitX=0.5;exitY=1;exitDx=0;exitDy=0;entryX=0.5;entryY=0;entryDx=0;entryDy=0;endArrow=none;endFill=0;" edge="1" parent="1" source="G8OPM8uIWyd5GZgRc9hr-1" target="G8OPM8uIWyd5GZgRc9hr-4">
          <mxGeometry relative="1" as="geometry" />
        </mxCell>
        <mxCell id="G8OPM8uIWyd5GZgRc9hr-10" style="edgeStyle=orthogonalEdgeStyle;rounded=0;orthogonalLoop=1;jettySize=auto;html=1;exitX=0.5;exitY=1;exitDx=0;exitDy=0;endArrow=none;endFill=0;" edge="1" parent="1" source="G8OPM8uIWyd5GZgRc9hr-1" target="G8OPM8uIWyd5GZgRc9hr-5">
          <mxGeometry relative="1" as="geometry" />
        </mxCell>
        <mxCell id="G8OPM8uIWyd5GZgRc9hr-11" style="edgeStyle=orthogonalEdgeStyle;rounded=0;orthogonalLoop=1;jettySize=auto;html=1;exitX=0.5;exitY=1;exitDx=0;exitDy=0;entryX=0.5;entryY=0;entryDx=0;entryDy=0;endArrow=none;endFill=0;" edge="1" parent="1" source="G8OPM8uIWyd5GZgRc9hr-1" target="G8OPM8uIWyd5GZgRc9hr-6">
          <mxGeometry relative="1" as="geometry" />
        </mxCell>
        <mxCell id="G8OPM8uIWyd5GZgRc9hr-1" value="Информационная система" style="rounded=0;whiteSpace=wrap;html=1;fillColor=#dae8fc;strokeColor=#6c8ebf;" vertex="1" parent="1">
          <mxGeometry x="140" y="100" width="240" height="60" as="geometry" />
        </mxCell>
        <mxCell id="G8OPM8uIWyd5GZgRc9hr-39" style="edgeStyle=orthogonalEdgeStyle;rounded=0;orthogonalLoop=1;jettySize=auto;html=1;exitX=0;exitY=0.5;exitDx=0;exitDy=0;entryX=0;entryY=0.5;entryDx=0;entryDy=0;" edge="1" parent="1" source="G8OPM8uIWyd5GZgRc9hr-2" target="G8OPM8uIWyd5GZgRc9hr-12">
          <mxGeometry relative="1" as="geometry" />
        </mxCell>
        <mxCell id="G8OPM8uIWyd5GZgRc9hr-40" style="edgeStyle=orthogonalEdgeStyle;rounded=0;orthogonalLoop=1;jettySize=auto;html=1;exitX=0;exitY=0.5;exitDx=0;exitDy=0;entryX=0;entryY=0.5;entryDx=0;entryDy=0;" edge="1" parent="1" source="G8OPM8uIWyd5GZgRc9hr-2" target="G8OPM8uIWyd5GZgRc9hr-37">
          <mxGeometry relative="1" as="geometry" />
        </mxCell>
        <mxCell id="G8OPM8uIWyd5GZgRc9hr-41" style="edgeStyle=orthogonalEdgeStyle;rounded=0;orthogonalLoop=1;jettySize=auto;html=1;exitX=0;exitY=0.5;exitDx=0;exitDy=0;entryX=0;entryY=0.5;entryDx=0;entryDy=0;" edge="1" parent="1" source="G8OPM8uIWyd5GZgRc9hr-2" target="G8OPM8uIWyd5GZgRc9hr-36">
          <mxGeometry relative="1" as="geometry" />
        </mxCell>
        <mxCell id="G8OPM8uIWyd5GZgRc9hr-43" style="edgeStyle=orthogonalEdgeStyle;rounded=0;orthogonalLoop=1;jettySize=auto;html=1;exitX=0;exitY=0.5;exitDx=0;exitDy=0;entryX=0;entryY=0.5;entryDx=0;entryDy=0;" edge="1" parent="1" source="G8OPM8uIWyd5GZgRc9hr-2" target="G8OPM8uIWyd5GZgRc9hr-38">
          <mxGeometry relative="1" as="geometry" />
        </mxCell>
        <mxCell id="G8OPM8uIWyd5GZgRc9hr-44" style="edgeStyle=orthogonalEdgeStyle;rounded=0;orthogonalLoop=1;jettySize=auto;html=1;exitX=0;exitY=0.5;exitDx=0;exitDy=0;entryX=0;entryY=0.5;entryDx=0;entryDy=0;" edge="1" parent="1" source="G8OPM8uIWyd5GZgRc9hr-2" target="G8OPM8uIWyd5GZgRc9hr-35">
          <mxGeometry relative="1" as="geometry" />
        </mxCell>
        <mxCell id="G8OPM8uIWyd5GZgRc9hr-2" value="Подсистема бронирования номеров для сотрудников гостиницы" style="rounded=0;whiteSpace=wrap;html=1;fillColor=#f8cecc;strokeColor=#b85450;" vertex="1" parent="1">
          <mxGeometry x="-200" y="200" width="200" height="50" as="geometry" />
        </mxCell>
        <mxCell id="G8OPM8uIWyd5GZgRc9hr-45" style="edgeStyle=orthogonalEdgeStyle;rounded=0;orthogonalLoop=1;jettySize=auto;html=1;exitX=0;exitY=0.5;exitDx=0;exitDy=0;entryX=0;entryY=0.5;entryDx=0;entryDy=0;" edge="1" parent="1" source="G8OPM8uIWyd5GZgRc9hr-4" target="G8OPM8uIWyd5GZgRc9hr-34">
          <mxGeometry relative="1" as="geometry" />
        </mxCell>
        <mxCell id="G8OPM8uIWyd5GZgRc9hr-46" style="edgeStyle=orthogonalEdgeStyle;rounded=0;orthogonalLoop=1;jettySize=auto;html=1;exitX=0;exitY=0.5;exitDx=0;exitDy=0;entryX=0;entryY=0.5;entryDx=0;entryDy=0;" edge="1" parent="1" source="G8OPM8uIWyd5GZgRc9hr-4" target="G8OPM8uIWyd5GZgRc9hr-33">
          <mxGeometry relative="1" as="geometry" />
        </mxCell>
        <mxCell id="G8OPM8uIWyd5GZgRc9hr-47" style="edgeStyle=orthogonalEdgeStyle;rounded=0;orthogonalLoop=1;jettySize=auto;html=1;exitX=0;exitY=0.5;exitDx=0;exitDy=0;entryX=0;entryY=0.5;entryDx=0;entryDy=0;" edge="1" parent="1" source="G8OPM8uIWyd5GZgRc9hr-4" target="G8OPM8uIWyd5GZgRc9hr-32">
          <mxGeometry relative="1" as="geometry" />
        </mxCell>
        <mxCell id="G8OPM8uIWyd5GZgRc9hr-4" value="Подсистема анализа бронирований и прогнозирования загрузки" style="rounded=0;whiteSpace=wrap;html=1;fillColor=#f8cecc;strokeColor=#b85450;" vertex="1" parent="1">
          <mxGeometry x="40" y="200" width="200" height="50" as="geometry" />
        </mxCell>
        <mxCell id="G8OPM8uIWyd5GZgRc9hr-48" style="edgeStyle=orthogonalEdgeStyle;rounded=0;orthogonalLoop=1;jettySize=auto;html=1;exitX=0;exitY=0.5;exitDx=0;exitDy=0;entryX=0;entryY=0.5;entryDx=0;entryDy=0;" edge="1" parent="1" source="G8OPM8uIWyd5GZgRc9hr-5" target="G8OPM8uIWyd5GZgRc9hr-30">
          <mxGeometry relative="1" as="geometry" />
        </mxCell>
        <mxCell id="G8OPM8uIWyd5GZgRc9hr-49" style="edgeStyle=orthogonalEdgeStyle;rounded=0;orthogonalLoop=1;jettySize=auto;html=1;exitX=0;exitY=0.5;exitDx=0;exitDy=0;entryX=0;entryY=0.5;entryDx=0;entryDy=0;" edge="1" parent="1" source="G8OPM8uIWyd5GZgRc9hr-5" target="G8OPM8uIWyd5GZgRc9hr-29">
          <mxGeometry relative="1" as="geometry" />
        </mxCell>
        <mxCell id="G8OPM8uIWyd5GZgRc9hr-5" value="Подсистема учета оплаты" style="rounded=0;whiteSpace=wrap;html=1;fillColor=#f8cecc;strokeColor=#b85450;" vertex="1" parent="1">
          <mxGeometry x="280" y="200" width="200" height="50" as="geometry" />
        </mxCell>
        <mxCell id="G8OPM8uIWyd5GZgRc9hr-50" style="edgeStyle=orthogonalEdgeStyle;rounded=0;orthogonalLoop=1;jettySize=auto;html=1;exitX=0;exitY=0.5;exitDx=0;exitDy=0;entryX=0;entryY=0.5;entryDx=0;entryDy=0;" edge="1" parent="1" source="G8OPM8uIWyd5GZgRc9hr-6" target="G8OPM8uIWyd5GZgRc9hr-28">
          <mxGeometry relative="1" as="geometry" />
        </mxCell>
        <mxCell id="G8OPM8uIWyd5GZgRc9hr-51" style="edgeStyle=orthogonalEdgeStyle;rounded=0;orthogonalLoop=1;jettySize=auto;html=1;exitX=0;exitY=0.5;exitDx=0;exitDy=0;entryX=0;entryY=0.5;entryDx=0;entryDy=0;" edge="1" parent="1" source="G8OPM8uIWyd5GZgRc9hr-6" target="G8OPM8uIWyd5GZgRc9hr-27">
          <mxGeometry relative="1" as="geometry" />
        </mxCell>
        <mxCell id="G8OPM8uIWyd5GZgRc9hr-6" value="Подсистема авторизации, безопасности и сервисных функций" style="rounded=0;whiteSpace=wrap;html=1;fillColor=#f8cecc;strokeColor=#b85450;" vertex="1" parent="1">
          <mxGeometry x="520" y="200" width="200" height="50" as="geometry" />
        </mxCell>
        <mxCell id="G8OPM8uIWyd5GZgRc9hr-7" style="edgeStyle=orthogonalEdgeStyle;rounded=0;orthogonalLoop=1;jettySize=auto;html=1;exitX=0.5;exitY=1;exitDx=0;exitDy=0;entryX=0.452;entryY=0.018;entryDx=0;entryDy=0;entryPerimeter=0;endArrow=none;endFill=0;" edge="1" parent="1" source="G8OPM8uIWyd5GZgRc9hr-1" target="G8OPM8uIWyd5GZgRc9hr-2">
          <mxGeometry relative="1" as="geometry" />
        </mxCell>
        <mxCell id="G8OPM8uIWyd5GZgRc9hr-12" value="Форма бронирования номера" style="text;html=1;align=right;verticalAlign=middle;whiteSpace=wrap;rounded=0;" vertex="1" parent="1">
          <mxGeometry x="-180" y="270" width="170" height="30" as="geometry" />
        </mxCell>
        <mxCell id="G8OPM8uIWyd5GZgRc9hr-27" value="Логирование действий пользователей" style="text;html=1;align=right;verticalAlign=middle;whiteSpace=wrap;rounded=0;" vertex="1" parent="1">
          <mxGeometry x="535" y="320" width="170" height="30" as="geometry" />
        </mxCell>
        <mxCell id="G8OPM8uIWyd5GZgRc9hr-28" value="Управление пользователями" style="text;html=1;align=right;verticalAlign=middle;whiteSpace=wrap;rounded=0;" vertex="1" parent="1">
          <mxGeometry x="535" y="270" width="170" height="30" as="geometry" />
        </mxCell>
        <mxCell id="G8OPM8uIWyd5GZgRc9hr-29" value="Ведение учета долгов и платежей" style="text;html=1;align=right;verticalAlign=middle;whiteSpace=wrap;rounded=0;" vertex="1" parent="1">
          <mxGeometry x="310" y="320" width="170" height="30" as="geometry" />
        </mxCell>
        <mxCell id="G8OPM8uIWyd5GZgRc9hr-30" value="Квитанции и счета на оплату" style="text;html=1;align=right;verticalAlign=middle;whiteSpace=wrap;rounded=0;" vertex="1" parent="1">
          <mxGeometry x="310" y="270" width="170" height="30" as="geometry" />
        </mxCell>
        <mxCell id="G8OPM8uIWyd5GZgRc9hr-32" value="Оценка популярности определенных услуг" style="text;html=1;align=right;verticalAlign=middle;whiteSpace=wrap;rounded=0;" vertex="1" parent="1">
          <mxGeometry x="60" y="370" width="170" height="30" as="geometry" />
        </mxCell>
        <mxCell id="G8OPM8uIWyd5GZgRc9hr-33" value="Анализ данных о бронировании" style="text;html=1;align=right;verticalAlign=middle;whiteSpace=wrap;rounded=0;" vertex="1" parent="1">
          <mxGeometry x="60" y="320" width="170" height="30" as="geometry" />
        </mxCell>
        <mxCell id="G8OPM8uIWyd5GZgRc9hr-34" value="Отчет о загрузке гостиницы" style="text;html=1;align=right;verticalAlign=middle;whiteSpace=wrap;rounded=0;" vertex="1" parent="1">
          <mxGeometry x="60" y="270" width="170" height="30" as="geometry" />
        </mxCell>
        <mxCell id="G8OPM8uIWyd5GZgRc9hr-35" value="Календарь" style="text;html=1;align=right;verticalAlign=middle;whiteSpace=wrap;rounded=0;" vertex="1" parent="1">
          <mxGeometry x="-180" y="430" width="170" height="30" as="geometry" />
        </mxCell>
        <mxCell id="G8OPM8uIWyd5GZgRc9hr-36" value="Редактирование броней" style="text;html=1;align=right;verticalAlign=middle;whiteSpace=wrap;rounded=0;" vertex="1" parent="1">
          <mxGeometry x="-180" y="350" width="170" height="30" as="geometry" />
        </mxCell>
        <mxCell id="G8OPM8uIWyd5GZgRc9hr-37" value="Поиск доступных номеров" style="text;html=1;align=right;verticalAlign=middle;whiteSpace=wrap;rounded=0;" vertex="1" parent="1">
          <mxGeometry x="-180" y="310" width="170" height="30" as="geometry" />
        </mxCell>
        <mxCell id="G8OPM8uIWyd5GZgRc9hr-38" value="Удаление броней" style="text;html=1;align=right;verticalAlign=middle;whiteSpace=wrap;rounded=0;" vertex="1" parent="1">
          <mxGeometry x="-180" y="390" width="175" height="30" as="geometry" />
        </mxCell>
      </root>
    </mxGraphModel>
  </diagram>
</mxfile>
